<?xml version="1.0" encoding="UTF-8" standalone="no"?>
<svg version="1.0" xmlns="http://www.w3.org/2000/svg"
 width="900.000000pt" height="900.000000pt" viewBox="0 0 900.000000 900.000000"
 preserveAspectRatio="xMidYMid meet">
<g transform="translate(0.000000,900.000000) scale(0.100000,-0.100000)"
fill="#000000" stroke="none">
<path d="M3930 6549 c-1 -112 -23 -447 -46 -689 -43 -459 -85 -649 -196 -895
-85 -187 -104 -260 -100 -389 4 -140 103 -242 257 -264 l50 -7 -1 -40 c-1 -82
-15 -631 -24 -950 -20 -651 -40 -1436 -45 -1745 -7 -363 -10 -400 -32 -400
-38 0 -167 -74 -228 -132 -115 -107 -175 -244 -175 -397 0 -110 20 -187 72
-278 179 -314 605 -373 862 -118 108 106 160 235 160 395 0 124 -33 226 -104
322 -49 67 -150 152 -202 170 -24 8 -28 16 -28 46 0 21 -4 183 -10 362 -5 179
-12 420 -15 535 -3 116 -7 271 -10 345 -3 74 -7 250 -10 390 -3 140 -8 343
-10 450 -17 605 -25 913 -25 981 l0 75 54 23 c74 30 130 92 152 167 29 99 4
265 -58 387 -45 90 -116 277 -138 365 -40 155 -61 305 -95 677 -8 84 -24 301
-36 475 -10 155 -19 216 -19 139z m99 -5681 c43 -13 107 -71 130 -117 58 -114
19 -256 -89 -327 -53 -36 -159 -45 -225 -20 -58 23 -128 100 -145 160 -56 202
122 367 329 304z"/>
</g>
</svg>
