<?xml version="1.0" encoding="UTF-8" standalone="no"?>
<svg version="1.0" xmlns="http://www.w3.org/2000/svg"
 width="900.000000pt" height="900.000000pt" viewBox="0 0 900.000000 900.000000"
 preserveAspectRatio="xMidYMid meet">
<g transform="translate(0.000000,900.000000) scale(0.100000,-0.100000)"
fill="#000000" stroke="none">
<path d="M5001 8718 c-3 -470 -33 -1291 -61 -1663 -5 -71 -12 -166 -16 -210
-3 -44 -7 -96 -9 -115 -2 -19 -6 -64 -10 -100 -16 -163 -40 -312 -87 -525 -44
-202 -49 -240 -45 -315 7 -146 64 -249 153 -282 41 -15 40 37 19 -608 -8 -256
-17 -557 -20 -670 -3 -113 -7 -277 -10 -365 -3 -88 -7 -252 -10 -365 -12 -431
-65 -2279 -68 -2364 -4 -82 -6 -91 -28 -105 -13 -9 -48 -38 -77 -66 -298 -278
-96 -786 312 -785 231 1 417 159 456 389 30 180 -68 378 -233 471 l-57 32 -1
141 c0 78 -2 149 -3 157 -2 8 -6 139 -10 290 -3 151 -8 336 -11 410 -3 74 -7
243 -10 375 -3 132 -8 312 -10 400 -3 88 -12 392 -20 675 -8 283 -17 578 -20
655 -2 77 -7 239 -10 360 -3 121 -8 263 -10 315 -2 52 -7 219 -11 372 l-7 276
31 16 c16 8 46 34 66 57 87 102 95 251 29 529 -67 281 -99 534 -128 1000 -17
278 -42 857 -50 1155 -14 530 -18 635 -25 635 -5 0 -9 -78 -9 -172z m99 -7873
c51 -26 60 -58 60 -215 l0 -140 -33 -36 c-27 -30 -41 -37 -73 -38 -50 -1 -86
22 -108 69 -15 30 -17 59 -14 165 3 112 6 132 24 157 39 52 91 66 144 38z"/>
</g>
</svg>
