<?xml version="1.0" encoding="UTF-8" standalone="no"?>
<svg version="1.0" xmlns="http://www.w3.org/2000/svg"
 width="127.000000pt" height="128.000000pt" viewBox="0 0 127.000000 128.000000"
 preserveAspectRatio="xMidYMid meet">
<g transform="translate(0.000000,128.000000) scale(0.100000,-0.100000)"
fill="#AC2729" stroke="none">
<path d="M462 819 c312 -320 345 -358 341 -382 -7 -36 12 -57 52 -57 27 0 40
-8 65 -40 17 -22 29 -43 26 -48 -3 -5 51 -64 119 -132 l125 -125 21 22 22 21
-119 126 c-65 70 -124 124 -130 122 -6 -2 -28 12 -48 33 -26 27 -36 46 -36 69
0 34 -26 55 -61 50 -14 -2 -111 88 -371 347 l-351 350 345 -356z"/>
</g>
</svg>
